<?xml version="1.0" encoding="iso-8859-1"?>
<!-- Generator: Adobe Illustrator 19.0.0, SVG Export Plug-In . SVG Version: 6.00 Build 0)  -->
<svg version="1.1" id="Capa_1" xmlns="http://www.w3.org/2000/svg" xmlns:xlink="http://www.w3.org/1999/xlink" x="0px" y="0px"
	 viewBox="0 0 368 368" style="enable-background:new 0 0 368 368;" xml:space="preserve">
<path style="fill:#CCE4FF;" d="M280,248v64H88v-64v-64v-64V56h192v64v64V248z M152,232l72-48l-72-48V232z"/>
<g>
	<path style="fill:#007AFF;" d="M360,48H8c-4.424,0-8,3.584-8,8v256c0,4.416,3.576,8,8,8h352c4.424,0,8-3.584,8-8V56
		C368,51.584,364.424,48,360,48z M80,176H16v-48h64V176z M16,192h64v48H16V192z M96,64h176v240H96V64z M288,128h64v48h-64V128z
		 M288,192h64v48h-64V192z M352,112h-64V64h64V112z M80,64v48H16V64H80z M16,256h64v48H16V256z M288,304v-48h64v48H288z"/>
	<path style="fill:#007AFF;" d="M228.44,177.344l-72-48c-2.456-1.64-5.616-1.792-8.208-0.4C145.624,130.336,144,133.048,144,136v96
		c0,2.952,1.624,5.664,4.224,7.056c1.184,0.632,2.48,0.944,3.776,0.944c1.552,0,3.104-0.456,4.44-1.344l72-48
		c2.224-1.488,3.56-3.984,3.56-6.656S230.664,178.832,228.44,177.344z M160,217.048v-66.104L209.576,184L160,217.048z"/>
</g>
<g>
</g>
<g>
</g>
<g>
</g>
<g>
</g>
<g>
</g>
<g>
</g>
<g>
</g>
<g>
</g>
<g>
</g>
<g>
</g>
<g>
</g>
<g>
</g>
<g>
</g>
<g>
</g>
<g>
</g>
</svg>
